<svg width="200" height="200" viewBox="0 0 200 200" xmlns="http://www.w3.org/2000/svg">
  <g fill="#1C8C8C">
    <!-- Top -->
    <path d="M100 10
             C130 10 140 40 120 60
             L100 80
             L80 60
             C60 40 70 10 100 10Z"/>

    <!-- Right -->
    <path d="M190 100
             C190 130 160 140 140 120
             L120 100
             L140 80
             C160 60 190 70 190 100Z"/>

    <!-- Bottom -->
    <path d="M100 190
             C70 190 60 160 80 140
             L100 120
             L120 140
             C140 160 130 190 100 190Z"/>

    <!-- Left -->
    <path d="M10 100
             C10 70 40 60 60 80
             L80 100
             L60 120
             C40 140 10 130 10 100Z"/>
  </g>
</svg>
